<svg width="26" height="26" viewBox="0 0 26 26" fill="none" xmlns="http://www.w3.org/2000/svg">
<path d="M18.2336 13.3749V11.3118H22.3598V13.3749H18.2336ZM19.4714 20.5959L16.1704 18.1201L17.4083 16.4696L20.7093 18.9454L19.4714 20.5959ZM17.4083 8.21708L16.1704 6.56658L19.4714 4.09082L20.7093 5.74132L17.4083 8.21708ZM4.82321 19.5643V15.438H3.79165C3.22428 15.438 2.73876 15.2362 2.33508 14.8325C1.93139 14.4288 1.7292 13.943 1.72852 13.3749V11.3118C1.72852 10.7444 1.9307 10.2589 2.33508 9.85521C2.73945 9.45152 3.22497 9.24933 3.79165 9.24864H7.91791L13.0757 6.15395V18.5327L7.91791 15.438H6.88634V19.5643H4.82321ZM14.1073 15.7991V8.8876C14.5715 9.30022 14.9456 9.80328 15.2296 10.3968C15.5137 10.9903 15.6553 11.6391 15.6546 12.3433C15.654 13.0476 15.5119 13.6968 15.2286 14.2909C14.9453 14.8851 14.5715 15.3878 14.1073 15.7991Z" fill="#269F8B"/>
</svg>
