<svg width="20" height="20" viewBox="0 0 20 20" fill="none" xmlns="http://www.w3.org/2000/svg">
<path fill-rule="evenodd" clip-rule="evenodd" d="M10.5903 13.0906C10.434 13.2469 10.2221 13.3346 10.0011 13.3346C9.78013 13.3346 9.56821 13.2469 9.41193 13.0906L4.69777 8.37647C4.61817 8.29959 4.55469 8.20764 4.51102 8.10597C4.46734 8.0043 4.44435 7.89495 4.44339 7.7843C4.44243 7.67365 4.46351 7.56392 4.50542 7.4615C4.54732 7.35909 4.60919 7.26605 4.68744 7.1878C4.76568 7.10956 4.85872 7.04768 4.96114 7.00578C5.06355 6.96388 5.17328 6.9428 5.28393 6.94376C5.39458 6.94472 5.50393 6.96771 5.6056 7.01138C5.70727 7.05506 5.79923 7.11854 5.8761 7.19813L10.0011 11.3231L14.1261 7.19813C14.2833 7.04633 14.4938 6.96234 14.7123 6.96424C14.9308 6.96614 15.1398 7.05378 15.2943 7.20828C15.4488 7.36279 15.5364 7.5718 15.5383 7.7903C15.5402 8.0088 15.4562 8.2193 15.3044 8.37647L10.5903 13.0906Z" fill="#626E70"/>
</svg>
