<svg width="26" height="26" viewBox="0 0 26 26" fill="none" xmlns="http://www.w3.org/2000/svg">
<path fill-rule="evenodd" clip-rule="evenodd" d="M8.5 6.875C8.5 6.37772 8.68963 5.90081 9.02717 5.54917C9.36471 5.19754 9.82252 5 10.2999 5H20.1992C20.6765 5 21.1343 5.19754 21.4719 5.54917C21.8094 5.90081 21.999 6.37772 21.999 6.875V13.4375C21.999 13.9348 21.8094 14.4117 21.4719 14.7633C21.1343 15.115 20.6765 15.3125 20.1992 15.3125H18.3993V11.5625C18.3993 10.8166 18.1148 10.1012 17.6085 9.57376C17.1022 9.04632 16.4155 8.75 15.6995 8.75H8.5V6.875Z" fill="#626E70"/>
<path fill-rule="evenodd" clip-rule="evenodd" d="M4 11.5625C4 11.0652 4.18963 10.5883 4.52717 10.2367C4.86471 9.88504 5.32252 9.6875 5.79987 9.6875H15.6992C16.1765 9.6875 16.6343 9.88504 16.9719 10.2367C17.3094 10.5883 17.499 11.0652 17.499 11.5625V18.125C17.499 18.6223 17.3094 19.0992 16.9719 19.4508C16.6343 19.8025 16.1765 20 15.6992 20H5.79987C5.32252 20 4.86471 19.8025 4.52717 19.4508C4.18963 19.0992 4 18.6223 4 18.125V11.5625ZM10.7495 12.5C10.1528 12.5 9.58056 12.7469 9.15864 13.1865C8.73671 13.626 8.49968 14.2221 8.49968 14.8438C8.49968 15.4654 8.73671 16.0615 9.15864 16.501C9.58056 16.9406 10.1528 17.1875 10.7495 17.1875C11.3462 17.1875 11.9185 16.9406 12.3404 16.501C12.7623 16.0615 12.9994 15.4654 12.9994 14.8438C12.9994 14.2221 12.7623 13.626 12.3404 13.1865C11.9185 12.7469 11.3462 12.5 10.7495 12.5Z" fill="#626E70"/>
<path d="M11.6495 14.8438C11.6495 15.0924 11.5547 15.3308 11.3859 15.5067C11.2171 15.6825 10.9882 15.7813 10.7495 15.7813C10.5109 15.7813 10.282 15.6825 10.1132 15.5067C9.94442 15.3308 9.84961 15.0924 9.84961 14.8438C9.84961 14.5951 9.94442 14.3567 10.1132 14.1808C10.282 14.005 10.5109 13.9062 10.7495 13.9062C10.9882 13.9062 11.2171 14.005 11.3859 14.1808C11.5547 14.3567 11.6495 14.5951 11.6495 14.8438Z" fill="#626E70"/>
</svg>
