<svg width="26" height="26" viewBox="0 0 26 26" fill="none" xmlns="http://www.w3.org/2000/svg">
<path d="M5.81697 5.81633C2.06101 9.5723 2.06101 15.6635 5.81697 19.4201C9.57294 23.1767 15.6628 23.1748 19.4188 19.4188C23.1748 15.6628 23.1767 9.57294 19.4201 5.81697C15.6641 2.06101 9.57421 2.06037 5.81697 5.81633ZM18.9692 6.26782C19.4853 6.79057 19.9356 7.37433 20.3103 8.00614L17.7085 10.6079C17.4347 9.91025 17.0196 9.27675 16.4893 8.74713C15.9594 8.21635 15.3254 7.801 14.6272 7.52724L17.229 4.92549C17.8618 5.30031 18.4458 5.75109 18.9692 6.26782ZM9.19989 16.0371C8.29346 15.13 7.78418 13.9002 7.78394 12.6178C7.78371 11.3355 8.29252 10.1054 9.19862 9.19798C10.1062 8.29234 11.336 7.78372 12.6182 7.78372C13.9004 7.78372 15.1302 8.29234 16.0378 9.19798C16.9428 10.1058 17.4509 11.3354 17.4509 12.6172C17.4509 13.8991 16.9428 15.1287 16.0378 16.0365C15.1305 16.9424 13.9009 17.4514 12.6188 17.4516C11.3367 17.4519 10.1068 16.9434 9.19925 16.0378L9.19989 16.0371ZM6.26718 18.9692C5.75065 18.4456 5.29988 17.861 4.92485 17.2283L7.52661 14.6266C7.80184 15.3238 8.21735 15.9571 8.74738 16.4871C9.27742 17.0171 9.91068 17.4327 10.6079 17.7079L8.00487 20.3096C7.38632 19.9398 6.79965 19.4998 6.26654 18.9686L6.26718 18.9692ZM8.00678 4.92358L10.6098 7.52661C9.91216 7.80093 9.27851 8.21605 8.74838 8.74608C8.21824 9.27611 7.80299 9.90967 7.52852 10.6073L4.92549 8.00551C5.29535 7.38695 5.73535 6.80028 6.26782 6.2659C6.79108 5.74955 7.37525 5.29879 8.00742 4.92358H8.00678ZM17.2303 20.3096L14.6272 17.7066C15.325 17.4326 15.9588 17.0177 16.4889 16.4878C17.0191 15.9578 17.4343 15.3242 17.7085 14.6266L20.3116 17.2283C19.9417 17.8469 19.5017 18.4348 18.9692 18.9692C18.4459 19.4852 17.8618 19.9355 17.2296 20.3103L17.2303 20.3096Z" fill="#626E70"/>
</svg>
