<svg width="26" height="26" viewBox="0 0 26 26" fill="none" xmlns="http://www.w3.org/2000/svg">
<path d="M10.0476 3.00004C8.395 2.99045 6.78612 4.73488 7.52061 6.90103H4.74879C4.28498 6.90103 3.84017 7.103 3.51221 7.4625C3.18425 7.82199 3 8.30958 3 8.81799V10.7349C3 10.9891 3.09212 11.2329 3.2561 11.4127C3.42008 11.5924 3.64249 11.6934 3.87439 11.6934H11.7439V8.81799H13.4927V11.6934H21.3622C21.5942 11.6934 21.8166 11.5924 21.9805 11.4127C22.1445 11.2329 22.2366 10.9891 22.2366 10.7349V8.81799C22.2366 8.30958 22.0524 7.82199 21.7244 7.4625C21.3965 7.103 20.9517 6.90103 20.4879 6.90103H17.716C18.7391 3.76682 14.8917 1.55274 13.1167 4.25564L12.6183 4.98408L12.1199 4.23647C11.569 3.38343 10.8083 3.00962 10.0476 3.00004ZM9.99514 4.98408C10.7734 4.98408 11.1668 6.01924 10.616 6.62308C10.0651 7.22692 9.12075 6.7956 9.12075 5.94256C9.12075 5.68836 9.21287 5.44456 9.37685 5.26481C9.54083 5.08507 9.76324 4.98408 9.99514 4.98408ZM15.2415 4.98408C16.0197 4.98408 16.4132 6.01924 15.8623 6.62308C15.3115 7.22692 14.3671 6.7956 14.3671 5.94256C14.3671 5.68836 14.4592 5.44456 14.6232 5.26481C14.7872 5.08507 15.0096 4.98408 15.2415 4.98408ZM3.87439 12.6519V20.3197C3.87439 20.8281 4.05864 21.3157 4.3866 21.6752C4.71456 22.0347 5.15937 22.2366 5.62318 22.2366H19.6135C20.0773 22.2366 20.5221 22.0347 20.85 21.6752C21.178 21.3157 21.3622 20.8281 21.3622 20.3197V12.6519H13.4927V20.3197H11.7439V12.6519H3.87439Z" fill="#626E70"/>
</svg>
