<svg width="26" height="26" viewBox="0 0 26 26" fill="none" xmlns="http://www.w3.org/2000/svg">
<path d="M7.27481 22.2366V20.0992H11.5496V16.7863C10.6768 16.5903 9.89776 16.2209 9.21237 15.678C8.52697 15.1351 8.02361 14.4536 7.70229 13.6336C6.36641 13.4733 5.24891 12.8901 4.34977 11.8841C3.45064 10.8781 3.00071 9.69791 3 8.34351V7.27481C3 6.68702 3.20947 6.18402 3.6284 5.7658C4.04733 5.34758 4.55033 5.13812 5.1374 5.1374H7.27481V3H17.9618V5.1374H20.0992C20.687 5.1374 21.1904 5.34687 21.6093 5.7658C22.0282 6.18473 22.2374 6.68774 22.2366 7.27481V8.34351C22.2366 9.6972 21.7867 10.8774 20.8869 11.8841C19.987 12.8908 18.8695 13.474 17.5343 13.6336C17.2137 14.4529 16.7107 15.1344 16.0253 15.678C15.3399 16.2216 14.5605 16.591 13.687 16.7863V20.0992H17.9618V22.2366H7.27481ZM7.27481 11.3359V7.27481H5.1374V8.34351C5.1374 9.02036 5.33333 9.63059 5.72519 10.1742C6.11705 10.7178 6.63359 11.105 7.27481 11.3359ZM17.9618 11.3359C18.6031 11.1043 19.1196 10.7167 19.5114 10.1731C19.9033 9.62952 20.0992 9.01964 20.0992 8.34351V7.27481H17.9618V11.3359Z" fill="#626E70"/>
</svg>
