<svg width="26" height="26" viewBox="0 0 26 26" fill="none" xmlns="http://www.w3.org/2000/svg">
<path d="M10.5118 11.0782C10.9109 11.0782 11.3061 10.9996 11.6748 10.8469C12.0435 10.6942 12.3786 10.4703 12.6608 10.1881C12.943 9.9059 13.1668 9.57087 13.3196 9.20214C13.4723 8.83342 13.5509 8.43823 13.5509 8.03912C13.5509 7.64002 13.4723 7.24482 13.3196 6.8761C13.1668 6.50738 12.943 6.17235 12.6608 5.89014C12.3786 5.60793 12.0435 5.38407 11.6748 5.23134C11.3061 5.07861 10.9109 5 10.5118 5C9.70575 5 8.93274 5.32019 8.36279 5.89014C7.79285 6.46008 7.47266 7.2331 7.47266 8.03912C7.47266 8.84515 7.79285 9.61816 8.36279 10.1881C8.93274 10.7581 9.70575 11.0782 10.5118 11.0782Z" fill="#626E70" stroke="#626E70" stroke-width="1.73664" stroke-linecap="round" stroke-linejoin="round"/>
<path d="M16.1562 11.0784L18.7612 8.47339L21.3662 11.0784" stroke="#626E70" stroke-width="1.73664" stroke-linecap="round" stroke-linejoin="round"/>
<path d="M4 20.1086V20.6296H17.0248V20.1086C17.0248 18.1636 17.0248 17.1911 16.6462 16.4478C16.3132 15.7943 15.7819 15.263 15.1284 14.93C14.3851 14.5514 13.4126 14.5514 11.4676 14.5514H9.55725C7.61221 14.5514 6.63969 14.5514 5.89641 14.93C5.2429 15.263 4.71158 15.7943 4.37859 16.4478C4 17.1911 4 18.1636 4 20.1086Z" fill="#626E70" stroke="#626E70" stroke-width="1.73664" stroke-linecap="round" stroke-linejoin="round"/>
</svg>
