<svg width="26" height="26" viewBox="0 0 26 26" fill="none" xmlns="http://www.w3.org/2000/svg">
<path d="M12.6183 8.91897C13.3472 8.91897 14.0461 8.60716 14.5615 8.05215C15.0769 7.49714 15.3664 6.74439 15.3664 5.95948C15.3664 5.17458 15.0769 4.42182 14.5615 3.86681C14.0461 3.3118 13.3472 3 12.6183 3C11.8895 3 11.1905 3.3118 10.6751 3.86681C10.1598 4.42182 9.87023 5.17458 9.87023 5.95948C9.87023 6.74439 10.1598 7.49714 10.6751 8.05215C11.1905 8.60716 11.8895 8.91897 12.6183 8.91897ZM8.49618 6.32942C8.49618 6.66948 8.43399 7.00622 8.31315 7.3204C8.1923 7.63457 8.01518 7.92004 7.7919 8.16051C7.56861 8.40097 7.30353 8.59171 7.0118 8.72185C6.72006 8.85199 6.40738 8.91897 6.0916 8.91897C5.77583 8.91897 5.46315 8.85199 5.17141 8.72185C4.87967 8.59171 4.61459 8.40097 4.39131 8.16051C4.16802 7.92004 3.9909 7.63457 3.87006 7.3204C3.74922 7.00622 3.68702 6.66948 3.68702 6.32942C3.68702 5.64263 3.94036 4.98397 4.39131 4.49833C4.84225 4.0127 5.45387 3.73987 6.0916 3.73987C6.72934 3.73987 7.34095 4.0127 7.7919 4.49833C8.24284 4.98397 8.49618 5.64263 8.49618 6.32942ZM21.5496 6.32942C21.5496 6.66948 21.4874 7.00622 21.3666 7.3204C21.2457 7.63457 21.0686 7.92004 20.8453 8.16051C20.622 8.40097 20.357 8.59171 20.0652 8.72185C19.7735 8.85199 19.4608 8.91897 19.145 8.91897C18.8293 8.91897 18.5166 8.85199 18.2248 8.72185C17.9331 8.59171 17.668 8.40097 17.4447 8.16051C17.2215 7.92004 17.0443 7.63457 16.9235 7.3204C16.8027 7.00622 16.7405 6.66948 16.7405 6.32942C16.7405 5.64263 16.9938 4.98397 17.4447 4.49833C17.8957 4.0127 18.5073 3.73987 19.145 3.73987C19.7828 3.73987 20.3944 4.0127 20.8453 4.49833C21.2963 4.98397 21.5496 5.64263 21.5496 6.32942ZM8.06817 10.3987C7.67708 10.9231 7.46445 11.5758 7.46565 12.2484V17.7974C7.46565 18.7112 7.67038 19.5731 8.03382 20.333C7.51022 20.6294 6.92439 20.7753 6.33308 20.7564C5.74176 20.7374 5.16501 20.5544 4.65868 20.2249C4.15236 19.8955 3.73361 19.4308 3.44302 18.8759C3.15242 18.321 2.99982 17.6946 3 17.0575V12.2484C3 11.7578 3.18096 11.2873 3.50306 10.9405C3.82517 10.5936 4.26203 10.3987 4.71756 10.3987H8.06817ZM17.2028 20.333C17.5766 19.5484 17.7714 18.6792 17.771 17.7974V12.2484C17.771 11.5485 17.5456 10.9055 17.1685 10.3987H20.5191C20.9746 10.3987 21.4115 10.5936 21.7336 10.9405C22.0557 11.2873 22.2366 11.7578 22.2366 12.2484V17.0575C22.2368 17.6946 22.0842 18.321 21.7936 18.8759C21.503 19.4308 21.0843 19.8955 20.578 20.2249C20.0716 20.5544 19.4949 20.7374 18.9036 20.7564C18.3123 20.7753 17.7264 20.6294 17.2028 20.333ZM10.2137 10.3987C9.75822 10.3987 9.32135 10.5936 8.99924 10.9405C8.67714 11.2873 8.49618 11.7578 8.49618 12.2484V17.7974C8.49618 18.9748 8.93048 20.1039 9.70353 20.9364C10.4766 21.7689 11.5251 22.2366 12.6183 22.2366C13.7116 22.2366 14.7601 21.7689 15.5331 20.9364C16.3062 20.1039 16.7405 18.9748 16.7405 17.7974V12.2484C16.7405 11.7578 16.5595 11.2873 16.2374 10.9405C15.9153 10.5936 15.4784 10.3987 15.0229 10.3987H10.2137Z" fill="#626E70"/>
</svg>
