<svg width="26" height="26" viewBox="0 0 26 26" fill="none" xmlns="http://www.w3.org/2000/svg">
<path d="M2 4C8.93 4 15.86 4 23 4C23 8.81525 23 13.6305 23 18.5917C20.1521 18.5917 17.3041 18.5917 14.3699 18.5917C14.3699 19.0124 14.3699 19.4332 14.3699 19.8667C14.5191 19.8656 14.5191 19.8656 14.6713 19.8644C15.1192 19.8615 15.5671 19.8596 16.015 19.8578C16.1716 19.8566 16.3281 19.8554 16.4895 19.8542C16.6383 19.8538 16.7871 19.8533 16.9404 19.8528C17.0782 19.8521 17.216 19.8513 17.3581 19.8506C17.6781 19.8667 17.6781 19.8667 17.8219 20.0083C17.8219 20.3356 17.8219 20.6628 17.8219 21C14.3095 21 10.797 21 7.17808 21C7.17808 20.626 7.17808 20.252 7.17808 19.8667C8.31726 19.8667 9.45644 19.8667 10.6301 19.8667C10.6301 19.4459 10.6301 19.0252 10.6301 18.5917C7.78219 18.5917 4.93425 18.5917 2 18.5917C2 13.7764 2 8.96117 2 4ZM22.146 17.8891C22.146 17.8891 8.84123 17.7759 2.86301 17.7417C9.22342 17.7417 15.5929 17.8891 22.146 17.8891C22.146 13.6348 22.137 9.23317 22.137 4.85C22.137 10.4634 22.146 17.8891 22.146 17.8891Z" fill="#626E70"/>
</svg>
